<svg width="252" height="238" viewBox="0 0 252 238" fill="none" xmlns="http://www.w3.org/2000/svg">
<rect width="252" height="238" rx="56" fill="#3F3B3B"/>
<g filter="url(#filter0_d_2_13)">
<path d="M149.164 55.728H161.548V126H145.996V84.336L130.156 106.992H121.804L105.772 84.144V126H90.412V55.728H103.084L126.22 89.616L149.164 55.728Z" fill="#EFEBEB"/>
<path d="M149.164 55.728V54.728H148.633L148.336 55.1674L149.164 55.728ZM161.548 55.728H162.548V54.728H161.548V55.728ZM161.548 126V127H162.548V126H161.548ZM145.996 126H144.996V127H145.996V126ZM145.996 84.336H146.996V81.1605L145.176 83.763L145.996 84.336ZM130.156 106.992V107.992H130.677L130.976 107.565L130.156 106.992ZM121.804 106.992L120.985 107.566L121.284 107.992H121.804V106.992ZM105.772 84.144L106.591 83.5696L104.772 80.9779V84.144H105.772ZM105.772 126V127H106.772V126H105.772ZM90.412 126H89.412V127H90.412V126ZM90.412 55.728V54.728H89.412V55.728H90.412ZM103.084 55.728L103.91 55.1642L103.612 54.728H103.084V55.728ZM126.22 89.616L125.394 90.1798L126.223 91.3946L127.048 90.1766L126.22 89.616ZM149.164 56.728H161.548V54.728H149.164V56.728ZM160.548 55.728V126H162.548V55.728H160.548ZM161.548 125H145.996V127H161.548V125ZM146.996 126V84.336H144.996V126H146.996ZM145.176 83.763L129.336 106.419L130.976 107.565L146.816 84.909L145.176 83.763ZM130.156 105.992H121.804V107.992H130.156V105.992ZM122.623 106.418L106.591 83.5696L104.953 84.7184L120.985 107.566L122.623 106.418ZM104.772 84.144V126H106.772V84.144H104.772ZM105.772 125H90.412V127H105.772V125ZM91.412 126V55.728H89.412V126H91.412ZM90.412 56.728H103.084V54.728H90.412V56.728ZM102.258 56.2918L125.394 90.1798L127.046 89.0522L103.91 55.1642L102.258 56.2918ZM127.048 90.1766L149.992 56.2886L148.336 55.1674L125.392 89.0554L127.048 90.1766Z" fill="#534E4E"/>
</g>
<g filter="url(#filter1_d_2_13)">
<path d="M163.48 150.643C166.45 150.258 169.406 151.542 171.123 153.997L195.197 188.415C198.906 193.717 195.102 201 188.631 201C141.814 201 110.083 201 63.239 201C56.7938 201 52.9828 193.768 56.6396 188.461L80.308 154.11C82.0411 151.595 85.0659 150.293 88.0909 150.718C117.036 154.785 133.188 154.57 163.48 150.643Z" fill="#292222"/>
<path d="M163.48 150.643C166.45 150.258 169.406 151.542 171.123 153.997L195.197 188.415C198.906 193.717 195.102 201 188.631 201C141.814 201 110.083 201 63.239 201C56.7938 201 52.9828 193.768 56.6396 188.461L80.308 154.11C82.0411 151.595 85.0659 150.293 88.0909 150.718C117.036 154.785 133.188 154.57 163.48 150.643Z" stroke="#E9DDDD" stroke-width="2" stroke-linejoin="round"/>
</g>
<defs>
<filter id="filter0_d_2_13" x="78.412" y="47.728" width="95.136" height="94.272" filterUnits="userSpaceOnUse" color-interpolation-filters="sRGB">
<feFlood flood-opacity="0" result="BackgroundImageFix"/>
<feColorMatrix in="SourceAlpha" type="matrix" values="0 0 0 0 0 0 0 0 0 0 0 0 0 0 0 0 0 0 127 0" result="hardAlpha"/>
<feOffset dy="4"/>
<feGaussianBlur stdDeviation="6"/>
<feComposite in2="hardAlpha" operator="out"/>
<feColorMatrix type="matrix" values="0 0 0 0 0 0 0 0 0 0 0 0 0 0 0 0 0 0 0.25 0"/>
<feBlend mode="normal" in2="BackgroundImageFix" result="effect1_dropShadow_2_13"/>
<feBlend mode="normal" in="SourceGraphic" in2="effect1_dropShadow_2_13" result="shape"/>
</filter>
<filter id="filter1_d_2_13" x="42.2136" y="145.576" width="167.442" height="76.4243" filterUnits="userSpaceOnUse" color-interpolation-filters="sRGB">
<feFlood flood-opacity="0" result="BackgroundImageFix"/>
<feColorMatrix in="SourceAlpha" type="matrix" values="0 0 0 0 0 0 0 0 0 0 0 0 0 0 0 0 0 0 127 0" result="hardAlpha"/>
<feOffset dy="8"/>
<feGaussianBlur stdDeviation="6"/>
<feComposite in2="hardAlpha" operator="out"/>
<feColorMatrix type="matrix" values="0 0 0 0 0 0 0 0 0 0 0 0 0 0 0 0 0 0 0.25 0"/>
<feBlend mode="normal" in2="BackgroundImageFix" result="effect1_dropShadow_2_13"/>
<feBlend mode="normal" in="SourceGraphic" in2="effect1_dropShadow_2_13" result="shape"/>
</filter>
</defs>
</svg>
